<svg aria-hidden="true" style="position: absolute; width: 0; height: 0; overflow: hidden;" version="1.1" xmlns="http://www.w3.org/2000/svg" xmlns:xlink="http://www.w3.org/1999/xlink">
<defs>
<symbol id="icon-xing" viewBox="0 0 22 28">
<path d="M9.328 10.422c0 0-0.156 0.266-4.016 7.125-0.203 0.344-0.469 0.719-1.016 0.719h-3.734c-0.219 0-0.391-0.109-0.484-0.266s-0.109-0.359 0-0.562l3.953-7c0.016 0 0.016 0 0-0.016l-2.516-4.359c-0.109-0.203-0.125-0.422-0.016-0.578 0.094-0.156 0.281-0.234 0.5-0.234h3.734c0.562 0 0.844 0.375 1.031 0.703 2.547 4.453 2.562 4.469 2.562 4.469zM21.922 0.391c0.109 0.156 0.109 0.375 0 0.578l-8.25 14.594c-0.016 0-0.016 0.016 0 0.016l5.25 9.609c0.109 0.203 0.109 0.422 0.016 0.578-0.109 0.156-0.281 0.234-0.5 0.234h-3.734c-0.562 0-0.859-0.375-1.031-0.703-5.297-9.703-5.297-9.719-5.297-9.719s0.266-0.469 8.297-14.719c0.203-0.359 0.438-0.703 1-0.703h3.766c0.219 0 0.391 0.078 0.484 0.234z"></path>
</symbol>
<symbol id="icon-linkedin" viewBox="0 0 24 28">
<path d="M5.453 9.766v15.484h-5.156v-15.484h5.156zM5.781 4.984c0.016 1.484-1.109 2.672-2.906 2.672v0h-0.031c-1.734 0-2.844-1.188-2.844-2.672 0-1.516 1.156-2.672 2.906-2.672 1.766 0 2.859 1.156 2.875 2.672zM24 16.375v8.875h-5.141v-8.281c0-2.078-0.75-3.5-2.609-3.5-1.422 0-2.266 0.953-2.641 1.875-0.125 0.344-0.172 0.797-0.172 1.266v8.641h-5.141c0.063-14.031 0-15.484 0-15.484h5.141v2.25h-0.031c0.672-1.062 1.891-2.609 4.672-2.609 3.391 0 5.922 2.219 5.922 6.969z"></path>
</symbol>
<symbol id="icon-gitlab" viewBox="0 0 28 28">
<path d="M1.625 11.031l12.375 15.859-13.563-9.844c-0.375-0.281-0.531-0.766-0.391-1.203l1.578-4.813zM8.844 11.031h10.313l-5.156 15.859zM5.75 1.469l3.094 9.562h-7.219l3.094-9.562c0.172-0.484 0.859-0.484 1.031 0zM26.375 11.031l1.578 4.813c0.141 0.438-0.016 0.922-0.391 1.203l-13.563 9.844 12.375-15.859zM26.375 11.031h-7.219l3.094-9.562c0.172-0.484 0.859-0.484 1.031 0z"></path>
</symbol>
<symbol id="icon-adobexd" viewBox="0 0 32 32">
<path fill="#ff2bc2" style="fill: var(--color1, #ff2bc2)" d="M26.333 0.4h-20.667c-3.133 0-5.667 2.533-5.667 5.667v19.867c0 3.133 2.533 5.667 5.667 5.667h20.667c3.133 0 5.667-2.533 5.667-5.667v-19.867c0-3.133-2.533-5.667-5.667-5.667zM30.653 25.413c0 0.007 0 0.015 0 0.023 0 2.667-2.16 4.828-4.826 4.831h-19.654c-2.667 0-4.84-2.173-4.84-4.84v-18.853c0-2.667 2.173-4.84 4.84-4.84h19.64c2.673 0 4.84 2.167 4.84 4.84v0zM12.653 15l3.733 7.173c0.067 0.107 0.027 0.213-0.080 0.213h-2.32c-0.147 0-0.213-0.040-0.28-0.173-0.853-1.76-1.72-3.52-2.613-5.413h-0.027c-0.8 1.787-1.68 3.667-2.533 5.427-0.067 0.107-0.133 0.147-0.24 0.147h-2.2c-0.133 0-0.147-0.107-0.080-0.187l3.653-6.96-3.533-7.040c-0.080-0.107 0-0.187 0.080-0.187h2.293c0.133 0 0.187 0.027 0.24 0.147 0.84 1.76 1.693 3.573 2.493 5.347h0.027c0.773-1.76 1.627-3.587 2.453-5.333 0.067-0.107 0.107-0.173 0.24-0.173h2.147c0.107 0 0.147 0.080 0.080 0.187zM17.040 17.173c0-3.107 2.067-5.533 5.347-5.533 0.28 0 0.427 0 0.693 0.027v-3.533c0-0.080 0.067-0.133 0.133-0.133h2.107c0.107 0 0.133 0.040 0.133 0.107v12.24c0 0.36 0 0.813 0.067 1.307 0 0.080-0.027 0.107-0.107 0.147-1.12 0.533-2.293 0.773-3.413 0.773-2.893 0.013-4.96-1.773-4.96-5.4zM23.080 13.76c-0.187-0.080-0.453-0.133-0.773-0.133-1.68 0-2.853 1.293-2.853 3.44 0 2.453 1.2 3.44 2.707 3.44 0.32 0 0.667-0.040 0.92-0.147z"></path>
</symbol>
<symbol id="icon-css3" viewBox="0 0 32 32">
<path fill="#1572b6" style="fill: var(--color2, #1572b6)" d="M2 0h28l-2.547 28.751-11.484 3.249-11.42-3.251zM24.787 5.884l-17.573-0.004 0.284 3.496 13.5 0.003-0.34 3.621h-8.853l0.32 3.431h8.243l-0.488 4.697-3.88 1.072-3.941-1.080-0.251-2.813h-3.48l0.387 5.14 7.287 2.271 7.164-2.040z"></path>
</symbol>
<symbol id="icon-docker" viewBox="0 0 32 32">
<path fill="#1488c6" style="fill: var(--color3, #1488c6)" d="M6.427 23.033c-0.912 0-1.739-0.747-1.739-1.653s0.747-1.657 1.74-1.657c0.997 0 1.747 0.747 1.747 1.656s-0.829 1.653-1.748 1.655zM27.776 14.016c-0.18-1.323-1-2.4-2.080-3.227l-0.42-0.333-0.339 0.413c-0.659 0.747-0.92 2.071-0.84 3.060 0.080 0.749 0.32 1.493 0.739 2.072-0.339 0.173-0.757 0.333-1.080 0.503-0.76 0.249-1.499 0.333-2.24 0.333h-21.387l-0.080 0.493c-0.16 1.576 0.080 3.227 0.749 4.72l0.325 0.58v0.080c2 3.311 5.56 4.8 9.437 4.8 7.459 0 13.576-3.227 16.476-10.177 1.9 0.083 3.819-0.413 4.72-2.235l0.24-0.413-0.4-0.249c-1.080-0.659-2.56-0.747-3.8-0.413zM17.099 12.693h-3.237v3.227h3.24v-3.229zM17.099 8.636h-3.237v3.227h3.24v-3.223zM17.099 4.497h-3.237v3.227h3.24v-3.227zM21.059 12.693h-3.219v3.227h3.227v-3.229zM9.061 12.693h-3.217v3.227h3.229v-3.229zM13.101 12.693h-3.2v3.227h3.219v-3.229zM5.061 12.693h-3.195v3.227h3.237v-3.229zM13.101 8.636h-3.2v3.227h3.219v-3.223zM9.041 8.636h-3.192v3.227h3.217v-3.223z"></path>
</symbol>
<symbol id="icon-firebase" viewBox="0 0 32 32">
<path fill="#ffca28" style="fill: var(--color4, #ffca28)" d="M5.187 20.897l3.153-20.283c0.055-0.35 0.354-0.614 0.714-0.614 0.276 0 0.515 0.154 0.637 0.381l0.002 0.004 3.391 6.361zM27.58 25.819l-3.003-18.665c-0.060-0.345-0.357-0.604-0.714-0.604-0.199 0-0.379 0.080-0.51 0.21l0-0-18.933 19.059 10.476 5.904c0.304 0.174 0.669 0.277 1.058 0.277s0.754-0.103 1.069-0.282l-0.011 0.006zM19.067 9.531l-2.427-4.643c-0.123-0.232-0.364-0.387-0.64-0.387s-0.517 0.155-0.638 0.383l-0.002 0.004-10.653 19.091z"></path>
</symbol>
<symbol id="icon-git" viewBox="0 0 32 32">
<path fill="#f05032" style="fill: var(--color5, #f05032)" d="M31.395 14.573l-13.972-13.971c-0.805-0.804-2.109-0.804-2.917 0l-2.895 2.9 3.68 3.68c0.86-0.287 1.839-0.093 2.519 0.588 0.688 0.687 0.877 1.677 0.584 2.533l3.544 3.547c0.86-0.297 1.849-0.104 2.533 0.58 0.961 0.96 0.961 2.512 0 3.472-0.959 0.959-2.508 0.959-3.467 0-0.719-0.721-0.899-1.783-0.539-2.661l-3.319-3.301v8.7c0.235 0.115 0.456 0.271 0.651 0.464 0.951 0.961 0.951 2.511 0 3.467-0.959 0.961-2.519 0.961-3.479 0-0.959-0.959-0.959-2.505 0-3.464 0.243-0.24 0.516-0.421 0.807-0.541v-8.785c-0.289-0.121-0.565-0.296-0.8-0.535-0.727-0.727-0.901-1.789-0.528-2.679l-3.616-3.633-9.581 9.575c-0.8 0.807-0.8 2.112 0 2.919l13.973 13.969c0.805 0.805 2.109 0.805 2.915 0l13.907-13.907c0.807-0.804 0.807-2.109 0-2.916z"></path>
</symbol>
<symbol id="icon-vue-dot-js" viewBox="0 0 32 32">
<path fill="#4fc08d" style="fill: var(--color6, #4fc08d)" d="M32 2.147h-13.253l-2.747 4.733-2.747-4.733h-13.253l16 27.707zM16 18.773l-9.12-15.8h5.907l3.213 5.573 3.213-5.573h5.907z"></path>
</symbol>
<symbol id="icon-flask" viewBox="0 0 32 32">
<path d="M9.563 27.54c-1.219-0.96-2.52-1.88-3.408-3.173-1.869-2.283-3.309-4.925-4.293-7.703-0.595-1.807-0.8-3.744-1.565-5.48-0.803-1.259 0.137-2.637 1.517-3.039 0.613-0.117 1.696-0.697 0.391-0.283-1.171 0.859-1.284-0.78-0.084-0.883 0.82-0.109 1.12-0.78 0.84-1.383-0.879-0.573 2.133-1.204 0.617-2.059-1.576-1.704 2.209-2.032 1.276-0.099-0.223 1.487 2.645-0.272 1.98 1.444 0.676 0.825 2.533 0.188 2.487 1.345 0.987 0.067 1.324 0.896 2.249 0.96 0.96 0.433 2.697 0.773 3.023 1.855-0.951 0.753-3.153-1.555-3.259 0.529 0.287 3.080 0.213 6.252 1.34 9.184 0.533 1.776 1.825 3.173 2.992 4.557 1.116 1.355 2.628 2.307 4.169 3.111 1.352 0.637 2.809 1.060 4.284 1.325 0.597-0.457 1.653-2.156 2.584-1.44 0.044 0.805-1.851 1.684-0.089 1.595 1.035-0.312 1.752 0.8 2.604-0.203 0.784 0.929 3.261-0.595 2.703 1.307-0.755 0.485-1.856 0.192-2.612 0.861-1.247-0.623-2.24 0.557-3.62 0.408-1.533 0.275-3.092 0.387-4.645 0.388-2.549-0.201-5.153-0.287-7.579-1.173-1.367-0.397-2.699-1.176-3.901-1.953zM11.716 28.473c1.333 0.576 2.639 1.184 4.1 1.368 2.32 0.321 4.716 0.819 7.044 0.365-1.053-0.476-2.144 0.187-3.193-0.34-1.259 0.271-2.609-0.069-3.889-0.236-1.456-0.648-3.027-1.093-4.389-1.936-1.703-0.621 0.88 0.797 1.341 0.913 1.064 0.604-1.171-0.311-1.487-0.561-0.891-0.5-1.005-0.396-0.088 0.112 0.185 0.108 0.368 0.221 0.561 0.315zM9.177 26.679c1.293 0.479-0.005-0.909-0.599-0.829-0.263-0.455-1.003-0.743-0.48-0.987-0.94 0.325-0.984-1.24-1.427-1.017-0.993-0.313-0.387-1.425-1.569-2.107-0.108-0.72-1.176-1.344-1.517-2.429-0.151-0.555-1.207-2.151-0.557-0.667 0.552 1.429 1.524 2.653 2.333 3.876 0.627 1.164 1.369 2.381 2.513 3.107 0.387 0.371 0.757 0.937 1.303 1.053zM5.453 22.589c0.044-0.195 0.236 0.423 0 0zM10.725 27.252c0.287-0.128-0.412-0.16 0 0zM11.427 27.508c-0.072-0.353-0.32 0.197 0 0zM12.307 27.875c0.417-0.399-0.645-0.251 0 0zM13.811 28.715c0.255-0.376-0.813-0.143 0 0zM10.92 26.697c0.649-0.42-0.84-0.005 0 0zM11.579 27.025c-0.019-0.221-0.235 0.1 0 0zM14.872 29.081c0.531 0.333 3.093 0.733 1.488 0.137-0.268 0.056-2.975-0.765-1.488-0.137zM9.644 25.009c-0.052-0.223-0.821-0.247 0 0zM11.177 25.903c0.4-0.279-0.828-0.213 0 0zM12.467 26.693c0.573-0.216-0.929-0.217 0 0zM9.020 24.329c0.621 0.477 2.507 0.061 0.952-0.284-0.707-0.377-2.303-0.635-1.216 0.227zM13.34 26.967c0.259-0.44-1.085-0.252 0 0zM12.028 25.923c1.52 0.431-1.277-0.96-0.375-0.157l0.2 0.091zM14.66 27.444c1.439 0.013-1.3-0.197 0 0zM8.467 23.497c-0.056-0.268-0.355 0.023 0 0zM17.093 28.809c0.039-0.484-0.469 0.36 0 0zM10.921 25.001c-0.087-0.255-0.449-0.011 0 0zM8.603 23.329c0.827-0.049-1.131-0.364 0 0zM5.856 21.553c-0.103-0.396-0.899-0.712 0 0zM13.067 26.133c-0.152-0.173-0.072 0.037 0 0zM17.555 28.887c-0.013-0.263-0.244 0.1 0 0zM12.669 25.723c0.080-0.34-0.705-0.103 0 0zM9.327 23.6c0.613-0.065-0.985-0.415 0 0zM14.983 27.116c0.957-0.38-0.933-0.187 0 0zM12.040 25.12c1.104 0.141-1.313-0.751-0.241-0.080zM15.876 27.477c1.031-0.616 0.691 1.443 1.748 0.173 1.043-0.76-0.9 0.943 0.385 0.137 0.929-0.623 2.303 0.293 3.169 0.593 0.624-0.031 1.231 0.54 1.871 0.193 1.231-0.333-2.408-0.493-1.453-1.080-1.127 0.327-1.96-0.392-2.513-1.113-1.264-0.292-2.725-0.937-3.356-2.056-0.256-0.42 0.372 0.059-0.221-0.627-0.761-0.677-1.141-1.447-1.653-2.269-0.609-0.325-0.68-1.284-0.743-0.032 0.005-0.791-0.737-1.323-0.919-1.101-0.003-0.761 0.795-0.38 0.236-0.943-0.12-0.789-0.516-1.612-0.635-2.503-0.184-0.429-0.027-1.348-0.631-0.376-0.22 1.027-0.073-1.263 0.269-0.507 0.449-0.772-0.16-0.68-0.187-0.573 0.293-0.651 0.187-1.573-0.076-1.221 0.156-0.689 0.247-2.536-0.233-2.208 0.291-0.72 0.552-3.297-0.712-2.315-0.512 0.007-1.397 0.187-1.817 0.395 1.315 0.724-0.132 0.261-0.667 0.147-0.069 0.669-0.6 0.38-1.261 0.387 1.057 0.131-0.515 1.080-1.121 0.712-0.787 0.376 0.68 1.316 0.016 1.607 0.081 0.437-1.207-0.159-1.107 0.853-0.764-0.321-0.104 1.2 0.279 0.685 1.3 0.352 0.915 1.155 0.948 1.916-0.212 0.444-1.047-1.044-0.187-0.975-0.677-1.103-0.749-0.399-1.313 0.113-0.132 0.037 1.439 0.729 0.453 1.071 0.867 0.133 0.891 0.893 1.067 1.373 0.521 0.543 0.415-0.6 1.039 0.053-0.395-0.581-2.089-1.637-0.725-1.299-0.007-0.585-0.247-1.057 0.172-1.045 0.413-0.749-0.433 1.849 0.5 0.896 0.257-0.113 0.321-0.751 0.787 0.060 0.673 0.664 0.243 1.144-0.708 0.537 0.169 0.577 1.272 0.783 1.065 1.687 0.22 0.793 0.527 0.501 0.795 0.456 0.211 0.771 0.329 0.204 0.34-0.164 0.961 0.207 0.736 0.775 1.037 1.173 0.663 0.299-0.949-2.029 0.189-0.701 1.197 1.081 0.449 1.533-0.627 1.36 0.68-0.055 0.9 0.92 1.751 0.885 0.776 0.369 1.301 1.787-0.036 1.196-0.464-0.417-2.105-0.933-0.764-0.139 1.239 0.573 2.221 0.917 3.416 1.636 0.853 0.611 1.224 1.309 1.547 1.448-0.717 0.343-2.164-0.275-1.089-0.464-0.671-0.121-1.424-0.46-0.783 0.373 0.547 0.457 1.933 0.408 2.183 0.46-0.212 0.464-0.573 0.501 0.008 0.537-0.648 0.347 0.208 0.4 0.268 0.596zM14.551 23.733c-0.395-0.413-0.497-1.187-0.071-0.513 0.219 0.088 0.7 1.263 0.071 0.513zM18.868 26.476c0.247-0.015 0.008 0.187 0 0zM13.927 22.721c-0.015-0.624 0.143 0.481 0 0zM13.497 22.144c-0.496-0.959 0.627 0.272 0 0zM8.297 18.555c0.291-0.079 0.143 0.499 0 0zM12.436 20.797c0.179-0.672 0.211 0.565 0 0zM9.512 18.764c-0.207-0.371 0.431 0.348 0 0zM12.021 19.569c-0.469-1.053 0.333-0.576 0.104 0.173zM7.693 16.683c-0.211-0.347-0.557-1.36-0.445-1.669 0.101 0.504 1.072 2.169 0.476 0.691-0.659-1.24 0.787 0.403 0.936 0.712 0.068 0.307-0.407-0.084-0.085 0.637-0.587-0.823-0.347 0.453-0.881-0.371zM6.356 15.761c0.055-0.804 0.307 0.551 0 0zM6.957 15.968c0.287-0.607 0.487 0.845 0 0zM5.511 14.848c-0.499-0.493-0.859-0.951 0.023-0.307 0.34 0.013-0.755-1.037 0.081-0.333 0.88 0.16 0.435 1.443-0.104 0.64zM6.271 14.828c0.289-0.287 0.153 0.283 0 0zM6.737 14.979c-0.437-0.823 0.533 0.344 0 0zM5.808 14.089c-1.448-1.288 1.82 0.675 0.236 0.24zM9.956 16.5c-0.627-0.376-0.165-2.645 0.048-1.093 0.609-0.197-0.033 0.801 0.42 0.792-0.071 0.631-0.275 0.857-0.468 0.301zM11.489 17.407c0.063-0.684 0.131 0.467 0 0zM11.223 17.143c0.071-0.292 0.008 0.344 0 0zM6.093 13.667c-0.929-1.284 2.703 1.297 0.596 0.325-0.22-0.057-0.485-0.079-0.596-0.325zM9.048 15.233c-0.088-1.080 0.196 0.179 0 0zM11.291 16.672c0.173-0.616 0.013 0.407 0 0zM6.235 13.176c0.553-0.117 2.291 0.972 0.695 0.312-0.177-0.197-0.556-0.107-0.695-0.312zM10.981 15.543c0.059-1.105 0.331-0.66 0.003 0.157zM6.647 12.792c0.225-0.331-0.599-1.493 0.119-0.417 0.309 0.247 0.896 0.413 0.377 0.516 0.815 0.719-0.199 0.195-0.496-0.099zM10.747 15.197c0.156-1.259 0.137 0.737 0 0zM6.176 11.629c0.172-0.073 0.091 0.229 0 0zM7.245 12.267c0.275-0.579 0.507 0.644 0 0zM10.263 13.945c-0.003-0.223 0.057 0.323 0 0zM10.088 13.559c-0.419-1.035 0.389 0.547 0 0zM9.831 12.88c-0.071-0.427 0.24 0.537 0 0zM10.249 12.2c-0.288-0.507 0.363-2.232 0.435-1.161-0.303 0.833-0.087 1.3 0.124 0.181 0.391-0.88-0.084 1.737-0.559 0.98zM10.679 9.635c0.125-0.153 0.028 0.185 0 0zM9.961 23.785c-0.171-0.148 0.021 0.095 0 0zM11.441 24.533c0.821 0.212 0.817-0.128 0.073-0.228-0.4-0.373-1.661-0.767-0.532-0.047 0.075 0.189 0.312 0.185 0.459 0.275zM8.519 22.593c0.453 0.337 1.707 0.959 0.645 0.128 0.359-0.416-0.685-0.637-0.339-0.915-0.88-0.539-0.693-0.491-0.077-0.475-1.059-0.472 0.152-0.437 0.095-0.68-0.408-0.080-2.027-0.719-1.073 0.053-0.968-0.493-0.231 0.184-0.523 0.112-0.991-0.269 0.88 0.753-0.157 0.5 0.567 0.449 1.528 1.152 0.24 0.476-0.171 0.244 0.921 0.613 1.189 0.8zM10.065 23.483c1.881 0.605-0.921-0.741 0 0zM17.985 28.28c0.027-0.373-0.256 0.32 0 0zM18.801 28.623c0.433-0.42 0.017 0.671 0.719-0.103 0.008-0.553-0.021-0.88-0.807-0.208-0.216 0.12-0.312 0.631 0.088 0.311zM5.877 20.507c-0.133-0.524-0.933-0.52 0 0zM6.747 21.077c-0.323-0.536-1.152-0.485 0 0zM11.693 24.060c0.483 0.428 2.217 0.315 0.587 0.053-0.243-0.359-1.535-0.272-0.587-0.053zM18.491 28.259c0.744-0.624-0.72 0.277 0 0zM20.037 29.32c0.004-0.2-0.32 0.088 0 0zM20.039 29.040c0.823-0.872-0.797 0.052 0 0zM3.74 18.717c-0.701-1-0.436-1.451-1.113-2.267-0.128-0.627-1.16-2.044-0.533-0.541 0.573 0.879 0.744 2.239 1.647 2.808zM19.78 28.763c1.515-0.979-0.62-0.427 0 0zM20.936 29.216c0.76-0.651-0.48-0.136 0 0zM5.62 19.4c0.217-0.323-0.56-0.041 0 0zM20.695 28.905c0.735-0.473-0.168-0.4-0.133 0.043zM10.733 22.627c-0.027-0.32-0.388 0.027 0 0zM11.348 22.981c-0.195-0.396-0.3 0.063 0 0zM21.873 29.227c0.94-0.68-0.571-0.131-0.197 0.128zM21.513 29.053c0.765-0.643-0.809 0.284 0 0zM23.353 30.277c0.515-0.344-0.625-0.111 0 0zM6.092 19.168c0.689 0.155 2.755 1.699 1.536 0.107-0.624-0.184-0.249-1.711-0.887-1.44 0.427 0.713 0.352 1.017-0.545 0.568-1.128-0.551-0.633 0.272-0.413 0.499-0.3 0.069 0.397 0.261 0.309 0.267zM2.951 16.688c0.123-0.511-1.137-2.809-0.595-1.152 0.195 0.347 0.175 1.005 0.595 1.152zM8.716 20.243c-0.355-0.297-0.017-0.043 0 0zM9.591 20.445c0-0.54-0.967-0.219 0 0zM17.167 25.223c-0.144-0.371-0.571-0.008 0 0zM17.531 25.488c-0.053-0.207-0.209 0.040 0 0zM20.535 27.38c0.288-0.213-0.36-0.027 0 0zM4.52 17.088c0.827-0.32-0.885-0.228 0 0zM16.5 24.636c-0.009-0.535-0.527 0.133 0 0zM4.193 16.328c0.531-0.18-0.491-0.119 0 0zM5.733 17.075c-0.009-0.177-0.163 0.067 0 0zM24.52 28.595c0.684-0.139 2.239 0.347 2.489-0.181-0.828-0.020-2.867-0.584-2.963 0.135l0.181 0.029zM6.224 17.197c0.012-0.543-0.423-0.020 0 0zM2.173 14.387c-0.184-1.033-0.7-0.157 0 0zM3.139 14.629c0.012-0.332-0.884-0.299 0 0zM3.691 14.9c-0.16-0.129-0.125 0.163 0 0zM7.164 17.127c0.163-0.149-0.387-0.111 0 0zM3.324 14.289c-0.093-0.78-1.12-0.117 0 0zM1.343 13.004c-0.027-0.36-0.192 0.136 0 0zM1.637 12.781c-0.048-0.427-0.253 0.053 0 0zM3.264 13.753c0.689-0.271-1.253-0.56-0.14-0.052zM25.043 27.205c0.44-0.404-0.56-0.125 0 0zM27.675 28.569c0.176-0.523-0.445 0.068 0 0zM3.431 12.901c0.073-0.505-0.545 0.1 0 0zM1.116 11.351c-0.124-0.713-0.107-1.965 1.083-1.541-1.588 0.315 1.099 1.973 0.76 0.664 0.667 0.032 1.307-0.395 0.955 0.253 1.316-0.145 2.228-1.285 3.499-1.127 0.989-0.131 2.072-0.229 3.139-0.628 0.877-0.064 1.721-1.008 1.24-1.567-1.195-0.101-2.447 0.048-3.769 0.311-1.464 0.304-2.795 0.883-4.273 1.132-1.44 0.193 0.289 0.533-0.123 0.608-0.752 0.261 0.896 0.437-0.097 0.712-0.613-0.117-1.253-0.328-0.991-0.973-1.38 0.177-2.593 0.751-1.503 2.155zM4.441 9.657c0.324-1.192 1.733 0.98 0.531 0.157-0.144-0.107-0.38-0.195-0.531-0.157zM4.504 9.079c0.467-0.347 0.248 0.195 0 0zM5.097 9.089c0.043-0.548 1.357 0.291 0.217 0.197zM5.908 8.763c0.296-0.347 0.085 0.308 0 0zM6.116 8.624c0.493-0.592 2.793-0.377 1.109-0.057-0.451-0.34-0.797 0.2-1.109 0.057zM9.117 8.161c-0.075-1.619 1.491 0.576 0 0zM9.969 8.156c0.311-0.816 1.208-0.327 0.144-0.164 0.023 0.087-0.032 0.421-0.144 0.164zM3.096 12.483c0.929-0.569-0.988-0.493 0 0zM3.783 12.675c0.327-0.347-0.708-0.141 0 0zM1.756 11.235c0.532-0.407-0.628-0.155 0 0zM29.227 28.421c0.016-0.473-0.405 0.213 0 0zM26.436 26.516c0.080-0.545-0.36 0.048 0 0zM29.996 28.605c0.743 0 2.251-0.231 0.633-0.231-0.253 0.040-1.479 0.032-0.633 0.231zM4.387 12.339c0.601-0.040 0.941-0.663-0.116-0.627-1.64-0.169 1.445 0.56-0.211 0.352-0.223 0.147 0.315 0.316 0.327 0.275zM4.917 12.608c-0.064-0.387-0.187 0.205 0 0zM5.544 10.932c0.263-0.324-0.36-0.087 0 0zM3.544 7.588c1.075-0.365 2.543-0.775 3.049 0.18-0.516-0.621-0.208-1.232 0.28-0.324 0.688 0.919 1.033-0.417 0.584-0.727 0.511 0.635 1.092 0.935 0.343 0.040 0.813-0.979-1.631 0.129-2.187 0.117-0.267 0.12-2.761 0.636-2.069 0.713zM4.173 6.384c0.613-0.463 2.117 0.275 1.152-0.46-0.093-0.083-2.115 0.557-1.152 0.46zM6.405 6.476c0.717 0.017-0.308-0.963 0.545-0.519-0.14-0.459-0.995-0.544-1.412-0.727-0.236 0.419 0.48 1.251 0.867 1.245zM4.565 4.449c0.248-0.336-0.435 0.171 0 0zM5.477 4.668c1.155-0.153-0.293-0.497-0.232-0.013zM3.775 3.335c-0.813-1.061 1.528 0.179 0.703-0.933-0.696-0.553-1.364 0.624-0.703 0.933zM14.208 8.955c0.373-0.661-1.54-0.891-0.251-0.233 0.119 0.040 0.092 0.28 0.251 0.233z"></path>
</symbol>
<symbol id="icon-html5" viewBox="0 0 32 32">
<path fill="#e34f26" style="fill: var(--color7, #e34f26)" d="M2 0h28l-2.547 28.751-11.484 3.249-11.419-3.251zM11.375 13l-0.309-3.624 13.412 0.004 0.307-3.496-17.568-0.004 0.931 10.68h12.168l-0.435 4.568-3.88 1.072-3.94-1.080-0.251-2.813h-3.479l0.44 5.561 7.229 1.933 7.172-1.924 0.992-10.876z"></path>
</symbol>
<symbol id="icon-css31" viewBox="0 0 32 32">
<path fill="#1572b6" style="fill: var(--color2, #1572b6)" d="M2 0h28l-2.547 28.751-11.484 3.249-11.42-3.251zM24.787 5.884l-17.573-0.004 0.284 3.496 13.5 0.003-0.34 3.621h-8.853l0.32 3.431h8.243l-0.488 4.697-3.88 1.072-3.941-1.080-0.251-2.813h-3.48l0.387 5.14 7.287 2.271 7.164-2.040z"></path>
</symbol>
<symbol id="icon-mysql" viewBox="0 0 32 32">
<path fill="#4479a1" style="fill: var(--color8, #4479a1)" d="M21.873 7.568c-0.153 0-0.257 0.019-0.365 0.044v0.017h0.019c0.072 0.139 0.195 0.24 0.285 0.364 0.072 0.143 0.133 0.285 0.205 0.427l0.019-0.020c0.125-0.088 0.187-0.229 0.187-0.444-0.053-0.063-0.061-0.125-0.107-0.187-0.053-0.089-0.168-0.133-0.243-0.201zM7.693 25.16h-1.236c-0.040-2.083-0.164-4.040-0.36-5.88h-0.011l-1.88 5.88h-0.94l-1.867-5.88h-0.013c-0.137 1.764-0.224 3.724-0.26 5.88h-1.127c0.073-2.621 0.256-5.080 0.547-7.373h1.533l1.78 5.419h0.011l1.796-5.419h1.46c0.323 2.687 0.512 5.147 0.567 7.373zM13.049 19.72c-0.504 2.727-1.168 4.711-1.989 5.947-0.643 0.955-1.347 1.431-2.111 1.431-0.204 0-0.453-0.061-0.755-0.184v-0.659c0.147 0.023 0.32 0.035 0.515 0.035 0.357 0 0.644-0.1 0.863-0.296 0.263-0.24 0.393-0.509 0.393-0.807 0-0.207-0.103-0.627-0.307-1.259l-1.352-4.208h1.213l0.969 3.147c0.219 0.715 0.311 1.213 0.273 1.497 0.533-1.419 0.904-2.969 1.113-4.644zM29.483 25.16h-3.507v-7.373h1.18v6.467h2.327zM25.056 25.34l-1.355-0.667c0.12-0.101 0.236-0.211 0.34-0.333 0.577-0.675 0.864-1.677 0.864-3.004 0-2.44-0.957-3.661-2.873-3.661-0.939 0-1.672 0.309-2.2 0.929-0.573 0.677-0.861 1.675-0.861 2.993 0 1.296 0.253 2.248 0.765 2.853 0.467 0.547 1.169 0.82 2.111 0.82 0.352 0 0.675-0.044 0.967-0.131l1.767 1.029zM20.667 23.684c-0.3-0.48-0.449-1.253-0.449-2.315 0-1.857 0.565-2.787 1.693-2.787 0.591 0 1.027 0.223 1.303 0.667 0.299 0.483 0.448 1.248 0.448 2.297 0 1.872-0.565 2.811-1.693 2.811-0.593 0-1.027-0.223-1.301-0.673zM18.456 23.117c0 0.627-0.229 1.141-0.688 1.541s-1.071 0.6-1.845 0.6c-0.724 0-1.419-0.229-2.097-0.687l0.316-0.635c0.584 0.293 1.111 0.437 1.587 0.437 0.443 0 0.791-0.097 1.044-0.293 0.251-0.196 0.4-0.472 0.4-0.82 0-0.44-0.307-0.813-0.864-1.127-0.517-0.284-1.551-0.876-1.551-0.876-0.563-0.409-0.843-0.848-0.843-1.569 0-0.6 0.209-1.080 0.627-1.447 0.42-0.371 0.96-0.553 1.627-0.553 0.683 0 1.307 0.181 1.867 0.547l-0.284 0.635c-0.48-0.203-0.953-0.307-1.419-0.307-0.377 0-0.669 0.091-0.872 0.275-0.204 0.181-0.331 0.413-0.331 0.699 0 0.437 0.312 0.813 0.888 1.133 0.524 0.287 1.583 0.893 1.583 0.893 0.577 0.407 0.864 0.84 0.856 1.553zM30.965 15.315c-0.713-0.019-1.267 0.053-1.729 0.251-0.133 0.053-0.347 0.053-0.365 0.223 0.073 0.071 0.084 0.187 0.147 0.285 0.107 0.179 0.291 0.417 0.461 0.543 0.187 0.147 0.373 0.288 0.569 0.413 0.347 0.213 0.74 0.34 1.080 0.555 0.193 0.125 0.391 0.284 0.587 0.417 0.097 0.067 0.16 0.187 0.285 0.229v-0.027c-0.061-0.080-0.080-0.196-0.14-0.285-0.089-0.089-0.179-0.169-0.267-0.257-0.259-0.347-0.58-0.649-0.927-0.9-0.285-0.195-0.909-0.467-1.027-0.793l-0.017-0.019c0.195-0.017 0.427-0.088 0.613-0.141 0.303-0.080 0.58-0.063 0.893-0.141 0.141-0.036 0.284-0.080 0.427-0.125v-0.080c-0.16-0.16-0.28-0.377-0.445-0.527-0.453-0.393-0.956-0.776-1.472-1.097-0.28-0.179-0.635-0.293-0.929-0.445-0.107-0.053-0.285-0.080-0.347-0.169-0.16-0.195-0.253-0.453-0.367-0.685-0.256-0.491-0.507-1.033-0.729-1.551-0.16-0.349-0.257-0.697-0.453-1.017-0.92-1.516-1.916-2.435-3.448-3.333-0.329-0.187-0.724-0.267-1.141-0.365-0.223-0.011-0.445-0.027-0.667-0.036-0.147-0.063-0.288-0.232-0.413-0.313-0.507-0.32-1.819-1.013-2.192-0.096-0.24 0.579 0.356 1.149 0.563 1.443 0.153 0.204 0.347 0.437 0.453 0.667 0.063 0.155 0.080 0.313 0.143 0.475 0.141 0.392 0.276 0.829 0.463 1.196 0.097 0.187 0.204 0.383 0.329 0.551 0.072 0.097 0.195 0.143 0.223 0.303-0.125 0.181-0.133 0.445-0.205 0.667-0.32 1.009-0.195 2.257 0.259 3 0.143 0.221 0.483 0.712 0.937 0.524 0.4-0.16 0.312-0.667 0.427-1.113 0.027-0.107 0.009-0.177 0.064-0.249v0.020c0.125 0.251 0.251 0.489 0.365 0.74 0.275 0.437 0.755 0.891 1.156 1.193 0.213 0.16 0.383 0.437 0.649 0.536v-0.027h-0.020c-0.057-0.077-0.133-0.115-0.205-0.177-0.16-0.16-0.34-0.356-0.467-0.533-0.373-0.503-0.703-1.053-0.996-1.624-0.147-0.28-0.269-0.581-0.387-0.857-0.053-0.107-0.053-0.267-0.143-0.32-0.133 0.195-0.329 0.364-0.427 0.604-0.169 0.384-0.187 0.856-0.251 1.347-0.036 0.009-0.019 0-0.036 0.019-0.285-0.069-0.383-0.365-0.489-0.613-0.267-0.633-0.311-1.651-0.080-2.38 0.063-0.187 0.329-0.776 0.223-0.955-0.056-0.169-0.232-0.267-0.329-0.404-0.116-0.165-0.24-0.38-0.32-0.569-0.213-0.499-0.32-1.051-0.552-1.549-0.107-0.231-0.293-0.472-0.445-0.684-0.169-0.24-0.356-0.409-0.491-0.693-0.044-0.097-0.107-0.259-0.036-0.365 0.019-0.072 0.056-0.1 0.125-0.12 0.117-0.096 0.447 0.029 0.563 0.083 0.329 0.133 0.607 0.259 0.883 0.445 0.125 0.088 0.26 0.257 0.42 0.301h0.187c0.285 0.063 0.607 0.019 0.873 0.097 0.473 0.152 0.9 0.373 1.283 0.613 1.168 0.741 2.128 1.793 2.78 3.048 0.107 0.205 0.153 0.393 0.251 0.607 0.187 0.44 0.417 0.884 0.607 1.309 0.187 0.42 0.367 0.848 0.635 1.196 0.133 0.187 0.669 0.284 0.909 0.381 0.177 0.080 0.453 0.153 0.613 0.251 0.307 0.187 0.605 0.4 0.893 0.605 0.147 0.101 0.591 0.324 0.617 0.504z"></path>
</symbol>
<symbol id="icon-mongodb" viewBox="0 0 32 32">
<path fill="#47a248" style="fill: var(--color9, #47a248)" d="M22.907 12.691c-1.684-7.413-5.656-9.849-6.083-10.781-0.469-0.657-0.977-1.909-0.977-1.909-0.003 0.025-0.005 0.041-0.007 0.065v0.017h-0.001c-0.003 0.020-0.004 0.033-0.005 0.052v0.020h-0.003c0 0.013-0.003 0.024-0.003 0.035v0.035h-0.004c-0.001 0.011-0.001 0.024-0.004 0.033v0.028h-0.003c0 0.009 0 0.020-0.003 0.028v0.027h-0.003c0 0.013-0.001 0.029-0.003 0.043v0.003c-0.004 0.023-0.008 0.045-0.012 0.067v0.011h-0.003c-0.001 0.005-0.004 0.011-0.004 0.016v0.023h-0.004v0.029h-0.007v0.024h-0.007v0.028h-0.005v0.025h-0.005v0.023h-0.008v0.019h-0.005v0.024h-0.005v0.019h-0.007v0.017h-0.004v0.020h-0.005c-0.001 0.001-0.001 0.004-0.001 0.005v0.013h-0.004c-0.001 0.003-0.001 0.005-0.001 0.008v0.008h-0.003c-0.001 0.004-0.003 0.011-0.003 0.013-0.004 0.009-0.009 0.019-0.013 0.028v0.003c-0.003 0.003-0.005 0.007-0.007 0.009v0.011h-0.005v0.011h-0.007v0.011h-0.004v0.013h-0.008v0.019h-0.005v0.005h-0.005v0.011h-0.005v0.015h-0.005v0.011h-0.008v0.015h-0.005v0.011h-0.007v0.011h-0.004v0.013h-0.007v0.011h-0.005v0.008h-0.005v0.011h-0.008v0.012h-0.005v0.008h-0.007v0.011h-0.005v0.015h-0.007v0.005h-0.004v0.011h-0.008v0.005h-0.005v0.013h-0.005v0.005h-0.005v0.011h-0.007v0.008h-0.004l-0.003 0.005v0.005h-0.003c-0.001 0.003-0.003 0.003-0.003 0.005v0.001h-0.001c-0.001 0.004-0.003 0.007-0.005 0.009v0.004h-0.001c-0.007 0.008-0.011 0.016-0.016 0.024v0.001c-0.003 0.003-0.009 0.008-0.012 0.013v0.003h-0.001c-0.001 0.001-0.004 0.003-0.004 0.004v0.004h-0.003l-0.004 0.004v0.001h-0.001c0 0.001-0.003 0.003-0.004 0.005v0.005h-0.004l-0.003 0.003v0.003h-0.003c0 0.003-0.003 0.003-0.003 0.004v0.004h-0.005c0 0.001-0.001 0.003-0.003 0.004v0.008h-0.004v0.005h-0.005v0.008h-0.005v0.011h-0.007v-0.011h-0.007v0.005h-0.005v0.008h-0.007v0.011h-0.007v0.005h-0.005v0.008h-0.005v0.005h-0.005v0.011h-0.008v0.005h-0.005v0.008h-0.007v0.005h-0.005v0.007h-0.007v0.013h-0.003v0.005h-0.008v0.007h-0.005v0.003h-0.005v0.005h-0.007v0.013h-0.005v0.005h-0.007v0.005h-0.005v0.008h-0.007v0.005h-0.007v0.005h-0.005v0.005h-0.005v0.013h-0.005v0.007h-0.008v0.005h-0.005v0.005h-0.007v0.008h-0.005v0.005h-0.007v0.009h-0.005v0.005h-0.008v0.008h-0.003v0.005h-0.005v0.005h-0.007v0.005h-0.005v0.008h-0.007v0.005h-0.004c-0.001 0.001-0.001 0.003-0.001 0.003v0.003h-0.003l-0.005 0.005c0 0-0.003 0.003-0.005 0.004v0.008h-0.005v0.007h-0.005v0.005h-0.005v0.005h-0.004l-0.004 0.004v0.004h-0.003l-0.003 0.003v0.004h-0.003c-0.007 0.008-0.009 0.013-0.019 0.021-0.003 0.003-0.011 0.009-0.016 0.013-0.016 0.011-0.036 0.028-0.052 0.043-0.011 0.007-0.021 0.016-0.029 0.023v0.001h-0.001c-0.021 0.017-0.041 0.033-0.065 0.052v0.001c-0.032 0.027-0.063 0.052-0.099 0.083v-0.001h-0.003c-0.076 0.063-0.156 0.133-0.248 0.212v0.001h-0.001c-0.225 0.197-0.493 0.451-0.793 0.757l-0.025 0.025c-1.813 1.876-4.671 5.785-4.972 12.103-0.027 0.523-0.021 1.031 0.008 1.525v0.012c0.145 2.489 0.927 4.615 1.904 6.341v0.001c0.389 0.688 0.809 1.313 1.235 1.873v0.001c1.469 1.94 2.969 3.089 3.352 3.368 0.588 1.364 0.533 3.705 0.533 3.705l0.859 0.287c0 0-0.175-2.268 0.071-3.363 0.076-0.343 0.256-0.635 0.465-0.883 0.141-0.1 0.56-0.401 1.063-0.86 0.024-0.025 0.037-0.048 0.059-0.072 2.028-1.891 5.816-6.547 4.517-14.132z"></path>
</symbol>
<symbol id="icon-node-dot-js" viewBox="0 0 32 32">
<path fill="#393" style="fill: var(--color10, #393)" d="M15.997 32c-0.428 0-0.855-0.112-1.229-0.329l-3.915-2.316c-0.584-0.327-0.299-0.443-0.107-0.511 0.78-0.271 0.937-0.333 1.771-0.805 0.087-0.049 0.201-0.031 0.291 0.023l3.008 1.785c0.109 0.060 0.263 0.060 0.363 0l11.727-6.768c0.109-0.063 0.179-0.188 0.179-0.317v-13.533c0-0.132-0.071-0.256-0.183-0.323l-11.721-6.763c-0.108-0.063-0.252-0.063-0.361 0l-11.719 6.764c-0.113 0.065-0.185 0.193-0.185 0.321v13.533c0 0.129 0.072 0.252 0.185 0.313l3.212 1.856c1.743 0.872 2.811-0.155 2.811-1.187v-13.361c0-0.189 0.152-0.337 0.341-0.337h1.487c0.185 0 0.34 0.149 0.34 0.337v13.361c0 2.327-1.267 3.66-3.472 3.66-0.677 0-1.212 0-2.701-0.735l-3.077-1.769c-0.76-0.439-1.229-1.26-1.229-2.139v-13.533c0-0.879 0.471-1.7 1.229-2.137l11.727-6.776c0.743-0.42 1.728-0.42 2.464 0l11.725 6.776c0.76 0.439 1.232 1.259 1.232 2.137v13.533c0 0.879-0.472 1.697-1.232 2.139l-11.725 6.771c-0.373 0.217-0.799 0.329-1.233 0.329zM25.465 18.657c0-2.533-1.712-3.208-5.316-3.684-3.641-0.481-4.012-0.731-4.012-1.583 0-0.704 0.313-1.644 3.011-1.644 2.409 0 3.297 0.519 3.663 2.143 0.032 0.153 0.172 0.265 0.329 0.265h1.521c0.095 0 0.184-0.041 0.248-0.108 0.064-0.072 0.099-0.164 0.089-0.261-0.236-2.797-2.095-4.101-5.851-4.101-3.344 0-5.339 1.411-5.339 3.777 0 2.567 1.984 3.276 5.193 3.593 3.84 0.376 4.137 0.937 4.137 1.692 0 1.311-1.052 1.869-3.523 1.869-3.103 0-3.785-0.779-4.015-2.323-0.027-0.165-0.168-0.287-0.337-0.287h-1.516c-0.188 0-0.339 0.149-0.339 0.337 0 1.976 1.075 4.331 6.207 4.331 3.717 0.001 5.848-1.461 5.848-4.017z"></path>
</symbol>
<symbol id="icon-react" viewBox="0 0 32 32">
<path fill="#61dafb" style="fill: var(--color11, #61dafb)" d="M16 13.148c-1.575 0-2.852 1.277-2.852 2.852s1.277 2.852 2.852 2.852v0c1.575 0 2.852-1.277 2.852-2.852s-1.277-2.852-2.852-2.852v0zM8.011 21.673l-0.629-0.16c-4.691-1.185-7.381-3.197-7.381-5.519s2.691-4.333 7.381-5.519l0.629-0.159 0.177 0.624c0.545 1.86 1.163 3.443 1.899 4.957l-0.082-0.186 0.135 0.284-0.135 0.284c-0.656 1.329-1.275 2.912-1.761 4.551l-0.056 0.22zM7.089 11.933c-3.565 1.001-5.753 2.533-5.753 4.061 0 1.527 2.188 3.059 5.753 4.061 0.512-1.62 1.046-2.965 1.662-4.263l-0.086 0.202c-0.531-1.098-1.066-2.443-1.511-3.828l-0.065-0.234zM23.989 21.673l-0.177-0.625c-0.544-1.859-1.162-3.441-1.9-4.954l0.081 0.184-0.135-0.284 0.135-0.284c0.656-1.329 1.275-2.911 1.762-4.55l0.056-0.221 0.177-0.624 0.631 0.159c4.689 1.185 7.38 3.197 7.38 5.52s-2.691 4.333-7.38 5.519zM23.335 15.995c0.64 1.385 1.169 2.747 1.576 4.061 3.567-1.003 5.753-2.535 5.753-4.061 0-1.528-2.188-3.059-5.753-4.061-0.511 1.619-1.045 2.963-1.662 4.262l0.086-0.2zM7.080 11.927l-0.177-0.623c-1.319-4.648-0.919-7.979 1.097-9.141 1.977-1.141 5.152 0.207 8.479 3.621l0.453 0.465-0.453 0.465c-1.146 1.19-2.207 2.482-3.162 3.853l-0.068 0.103-0.18 0.257-0.313 0.027c-1.875 0.151-3.596 0.439-5.264 0.86l0.218-0.047zM9.608 3.087c-0.357 0-0.673 0.077-0.94 0.231-1.325 0.764-1.56 3.42-0.647 7.004 1.21-0.285 2.681-0.521 4.18-0.658l0.131-0.010c0.894-1.264 1.792-2.37 2.756-3.414l-0.020 0.022c-2.080-2.025-4.049-3.175-5.46-3.175zM22.393 30.236c-0.001 0-0.001 0 0 0-1.9 0-4.34-1.431-6.872-4.031l-0.453-0.465 0.453-0.465c1.146-1.19 2.206-2.482 3.16-3.854l0.068-0.103 0.18-0.257 0.312-0.027c1.875-0.15 3.597-0.438 5.267-0.858l-0.218 0.046 0.629-0.159 0.179 0.624c1.316 4.645 0.917 7.977-1.099 9.139-0.449 0.259-0.988 0.411-1.562 0.411-0.016 0-0.031-0-0.047-0l0.002 0zM16.932 25.728c2.080 2.025 4.049 3.175 5.46 3.175h0.001c0.356 0 0.673-0.077 0.939-0.231 1.325-0.764 1.561-3.421 0.647-7.005-1.212 0.286-2.682 0.522-4.182 0.658l-0.13 0.010c-0.893 1.265-1.791 2.371-2.755 3.416l0.020-0.022zM24.92 11.927l-0.629-0.159c-1.453-0.376-3.175-0.664-4.939-0.806l-0.111-0.007-0.312-0.027-0.18-0.257c-1.021-1.474-2.082-2.766-3.237-3.966l0.009 0.010-0.453-0.465 0.453-0.465c3.325-3.413 6.499-4.761 8.479-3.621 2.016 1.163 2.416 4.493 1.099 9.14zM19.667 9.653c1.523 0.139 2.969 0.364 4.312 0.668 0.915-3.584 0.679-6.24-0.647-7.004-1.317-0.761-3.793 0.405-6.4 2.944 0.943 1.022 1.841 2.128 2.666 3.289l0.069 0.103zM9.608 30.236c-0.014 0-0.030 0-0.046 0-0.574 0-1.113-0.152-1.577-0.419l0.015 0.008c-2.016-1.161-2.416-4.492-1.097-9.139l0.176-0.624 0.629 0.159c1.54 0.388 3.239 0.661 5.047 0.812l0.313 0.027 0.179 0.257c1.022 1.475 2.083 2.767 3.239 3.967l-0.010-0.010 0.453 0.465-0.453 0.465c-2.531 2.6-4.971 4.031-6.868 4.031zM8.021 21.667c-0.915 3.584-0.679 6.241 0.647 7.005 1.316 0.751 3.791-0.407 6.4-2.944-0.943-1.022-1.841-2.129-2.667-3.29l-0.069-0.103c-1.629-0.146-3.099-0.382-4.534-0.711l0.224 0.043zM16 22.504c-1.097 0-2.225-0.048-3.355-0.141l-0.313-0.027-0.18-0.257c-0.544-0.768-1.139-1.691-1.697-2.639l-0.103-0.19c-0.452-0.758-0.971-1.732-1.45-2.728l-0.105-0.243-0.133-0.284 0.133-0.284c0.584-1.239 1.102-2.212 1.658-3.161l-0.103 0.191c0.552-0.955 1.159-1.907 1.8-2.829l0.18-0.257 0.313-0.027c1.005-0.090 2.174-0.142 3.355-0.142s2.35 0.052 3.505 0.153l-0.15-0.011 0.312 0.027 0.179 0.257c1.177 1.666 2.294 3.567 3.252 5.56l0.104 0.24 0.135 0.284-0.135 0.284c-1.058 2.232-2.176 4.133-3.439 5.925l0.083-0.125-0.179 0.257-0.312 0.027c-1.129 0.093-2.259 0.141-3.356 0.141zM13.071 21.059c1.973 0.148 3.885 0.148 5.86 0 1.004-1.445 1.978-3.104 2.827-4.836l0.101-0.228c-0.947-1.958-1.922-3.617-3.012-5.19l0.083 0.126c-0.877-0.071-1.898-0.111-2.929-0.111s-2.052 0.040-3.063 0.119l0.134-0.008c-1.008 1.447-1.983 3.106-2.83 4.84l-0.099 0.224c0.951 1.96 1.926 3.619 3.014 5.193l-0.085-0.13z"></path>
</symbol>
<symbol id="icon-javascript" viewBox="0 0 32 32">
<path fill="#f7df1e" style="fill: var(--color12, #f7df1e)" d="M0 0h32v32h-32zM29.379 24.368c-0.233-1.46-1.184-2.687-4.004-3.831-0.981-0.46-2.072-0.78-2.396-1.52-0.121-0.44-0.14-0.68-0.061-0.94 0.2-0.861 1.22-1.12 2.020-0.88 0.52 0.16 1 0.56 1.301 1.2 1.379-0.901 1.379-0.901 2.34-1.5-0.36-0.56-0.539-0.801-0.781-1.040-0.84-0.94-1.959-1.42-3.779-1.379l-0.94 0.119c-0.901 0.22-1.76 0.7-2.28 1.34-1.52 1.721-1.081 4.721 0.759 5.961 1.82 1.36 4.481 1.659 4.821 2.94 0.32 1.56-1.16 2.060-2.621 1.88-1.081-0.24-1.68-0.781-2.34-1.781l-2.44 1.401c0.28 0.64 0.6 0.919 1.080 1.479 2.32 2.341 8.12 2.221 9.161-1.339 0.039-0.12 0.32-0.94 0.099-2.2zM17.401 14.708h-2.997c0 2.584-0.012 5.152-0.012 7.74 0 1.643 0.084 3.151-0.184 3.615-0.44 0.919-1.573 0.801-2.088 0.64-0.528-0.261-0.796-0.621-1.107-1.14-0.084-0.14-0.147-0.261-0.169-0.261l-2.433 1.5c0.407 0.84 1 1.563 1.765 2.023 1.14 0.68 2.672 0.9 4.276 0.54 1.044-0.301 1.944-0.921 2.415-1.881 0.68-1.24 0.536-2.76 0.529-4.461 0.016-2.739 0-5.479 0-8.239z"></path>
</symbol>
<symbol id="icon-java" viewBox="0 0 32 32">
<path fill="#007396" style="fill: var(--color13, #007396)" d="M11.801 24.747c0 0-1.223 0.712 0.871 0.952 2.536 0.291 3.832 0.249 6.625-0.281 0 0 0.736 0.461 1.761 0.861-6.265 2.684-14.177-0.157-9.257-1.532zM11.035 21.244c0 0-1.371 1.015 0.723 1.232 2.709 0.279 4.848 0.303 8.551-0.411 0 0 0.512 0.519 1.316 0.803-7.572 2.215-16.009 0.173-10.589-1.624zM17.488 15.3c1.544 1.777-0.405 3.377-0.405 3.377s3.919-2.024 2.119-4.557c-1.681-2.363-2.971-3.536 4.009-7.584 0-0.001-10.955 2.735-5.723 8.764zM25.773 27.339c0 0 0.905 0.745-0.996 1.321-3.616 1.096-15.051 1.425-18.225 0.044-1.141-0.497 1-1.187 1.672-1.331 0.703-0.152 1.104-0.124 1.104-0.124-1.271-0.895-8.208 1.756-3.524 2.516 12.773 2.071 23.283-0.933 19.969-2.427zM12.389 17.613c0 0-5.816 1.381-2.059 1.883 1.585 0.212 4.748 0.164 7.693-0.083 2.408-0.203 4.824-0.636 4.824-0.636s-0.849 0.363-1.464 0.783c-5.905 1.553-17.315 0.831-14.029-0.757 2.776-1.341 5.035-1.189 5.035-1.189zM22.821 23.445c6.004-3.12 3.228-6.119 1.291-5.713-0.473 0.099-0.687 0.184-0.687 0.184s0.176-0.276 0.513-0.396c3.833-1.348 6.781 3.975-1.237 6.083 0-0.001 0.093-0.083 0.12-0.157zM19.201 0c0 0 3.325 3.325-3.153 8.44-5.195 4.103-1.184 6.443-0.001 9.115-3.032-2.737-5.257-5.144-3.765-7.385 2.192-3.292 8.263-4.887 6.92-10.169zM12.979 31.899c5.763 0.369 14.612-0.204 14.821-2.931 0 0-0.403 1.033-4.763 1.855-4.917 0.925-10.985 0.817-14.583 0.224 0-0.001 0.737 0.609 4.524 0.852z"></path>
</symbol>
<symbol id="icon-python" viewBox="0 0 32 32">
<path fill="#3776ab" style="fill: var(--color14, #3776ab)" d="M19.080 0.24l1.2 0.267 0.973 0.347 0.787 0.4 0.6 0.427 0.453 0.453 0.333 0.453 0.213 0.44 0.133 0.4 0.053 0.347 0.027 0.267-0.013 0.173v7.12l-0.067 0.84-0.173 0.733-0.28 0.613-0.347 0.507-0.4 0.413-0.44 0.333-0.467 0.253-0.467 0.187-0.44 0.133-0.4 0.093-0.347 0.053-0.28 0.027h-7.96l-0.92 0.067-0.787 0.187-0.667 0.293-0.547 0.36-0.44 0.427-0.36 0.467-0.267 0.48-0.2 0.493-0.133 0.467-0.093 0.427-0.053 0.36-0.027 0.28v4.080h-2.973l-0.28-0.040-0.373-0.093-0.427-0.16-0.467-0.24-0.48-0.347-0.48-0.48-0.467-0.613-0.427-0.787-0.373-0.973-0.28-1.173-0.187-1.4-0.067-1.64 0.080-1.627 0.213-1.387 0.32-1.16 0.427-0.947 0.48-0.76 0.533-0.587 0.56-0.44 0.56-0.32 0.533-0.213 0.48-0.133 0.427-0.067 0.32-0.013h0.213l0.080 0.013h10.88v-1.107h-7.787l-0.013-3.667-0.027-0.493 0.067-0.453 0.147-0.413 0.227-0.373 0.333-0.347 0.413-0.307 0.507-0.267 0.587-0.24 0.68-0.2 0.773-0.16 0.853-0.133 0.947-0.080 1.027-0.053 1.12-0.027 1.693 0.067zM10.68 2.88l-0.307 0.44-0.107 0.547 0.107 0.547 0.307 0.453 0.44 0.293 0.547 0.12 0.547-0.12 0.44-0.293 0.307-0.453 0.107-0.547-0.107-0.547-0.307-0.44-0.44-0.293-0.547-0.12-0.547 0.12zM28.133 8.147l0.373 0.080 0.427 0.16 0.467 0.24 0.48 0.36 0.48 0.467 0.467 0.627 0.427 0.787 0.373 0.973 0.28 1.173 0.187 1.387 0.067 1.64-0.080 1.64-0.213 1.387-0.32 1.147-0.427 0.947-0.48 0.76-0.533 0.6-0.56 0.44-0.56 0.32-0.533 0.213-0.48 0.12-0.427 0.067-0.32 0.027-0.213-0.013h-10.96v1.093h7.787l0.013 3.68 0.027 0.48-0.067 0.453-0.147 0.413-0.227 0.387-0.333 0.333-0.413 0.32-0.507 0.267-0.587 0.227-0.68 0.2-0.773 0.173-0.853 0.12-0.947 0.093-1.027 0.053-1.12 0.013-1.693-0.053-1.427-0.187-1.2-0.267-0.973-0.333-0.787-0.4-0.6-0.44-0.453-0.453-0.333-0.453-0.213-0.44-0.133-0.4-0.053-0.333-0.027-0.267 0.013-0.173v-7.12l0.067-0.853 0.173-0.72 0.28-0.613 0.347-0.507 0.4-0.427 0.44-0.32 0.467-0.267 0.467-0.187 0.44-0.133 0.4-0.080 0.347-0.053 0.28-0.027 0.173-0.013h7.787l0.92-0.067 0.787-0.187 0.667-0.28 0.547-0.373 0.44-0.427 0.36-0.467 0.267-0.48 0.2-0.48 0.133-0.467 0.093-0.427 0.053-0.373 0.027-0.28v-4.080h2.787l0.187 0.013zM19.507 27.147l-0.307 0.44-0.107 0.547 0.107 0.547 0.307 0.44 0.44 0.307 0.547 0.107 0.547-0.107 0.44-0.307 0.307-0.44 0.107-0.547-0.107-0.547-0.307-0.44-0.44-0.307-0.547-0.107-0.547 0.107z"></path>
</symbol>
<symbol id="icon-sass" viewBox="0 0 32 32">
<path fill="#c69" style="fill: var(--color15, #c69)" d="M16 0c8.836 0 16 7.164 16 16s-7.164 16-16 16-16-7.164-16-16 7.164-16 16-16zM12.82 21.331c0.233 0.86 0.208 1.664-0.032 2.389l-0.087 0.24c-0.032 0.081-0.069 0.16-0.104 0.235-0.187 0.387-0.435 0.747-0.74 1.080-0.931 1.012-2.229 1.396-2.787 1.073-0.6-0.349-0.301-1.78 0.779-2.92 1.161-1.224 2.827-2.012 2.827-2.012v-0.004zM26.035 6.849c-0.723-2.844-5.436-3.779-9.896-2.193-2.652 0.943-5.525 2.424-7.591 4.356-2.457 2.295-2.848 4.295-2.687 5.131 0.569 2.948 4.609 4.876 6.271 6.307v0.008c-0.489 0.24-4.075 2.039-4.915 3.9-0.9 1.96 0.14 3.361 0.82 3.54 2.1 0.581 4.26-0.48 5.42-2.199 1.12-1.681 1.021-3.841 0.539-4.901 0.661-0.18 1.44-0.26 2.44-0.139 2.801 0.32 3.361 2.080 3.24 2.8-0.12 0.719-0.697 1.139-0.899 1.259-0.2 0.121-0.26 0.16-0.241 0.241 0.020 0.12 0.121 0.12 0.28 0.1 0.22-0.040 1.461-0.6 1.521-1.961 0.060-1.72-1.581-3.639-4.5-3.6-1.2 0.021-1.961 0.121-2.5 0.341-0.040-0.060-0.081-0.1-0.14-0.14-1.8-1.94-5.14-3.3-5-5.88 0.040-0.94 0.38-3.419 6.4-6.419 4.94-2.461 8.881-1.78 9.561-0.28 0.977 2.139-2.101 6.12-7.241 6.699-1.96 0.22-2.98-0.539-3.241-0.82-0.279-0.3-0.319-0.32-0.419-0.259-0.16 0.080-0.060 0.34 0 0.5 0.16 0.4 0.78 1.1 1.861 1.46 0.939 0.3 3.24 0.479 6-0.6 3.099-1.199 5.519-4.54 4.819-7.34z"></path>
</symbol>
<symbol id="icon-twitter" viewBox="0 0 32 32">
<path d="M32 7.075c-1.175 0.525-2.444 0.875-3.769 1.031 1.356-0.813 2.394-2.1 2.887-3.631-1.269 0.75-2.675 1.3-4.169 1.594-1.2-1.275-2.906-2.069-4.794-2.069-3.625 0-6.563 2.938-6.563 6.563 0 0.512 0.056 1.012 0.169 1.494-5.456-0.275-10.294-2.888-13.531-6.862-0.563 0.969-0.887 2.1-0.887 3.3 0 2.275 1.156 4.287 2.919 5.463-1.075-0.031-2.087-0.331-2.975-0.819 0 0.025 0 0.056 0 0.081 0 3.181 2.263 5.838 5.269 6.437-0.55 0.15-1.131 0.231-1.731 0.231-0.425 0-0.831-0.044-1.237-0.119 0.838 2.606 3.263 4.506 6.131 4.563-2.25 1.762-5.075 2.813-8.156 2.813-0.531 0-1.050-0.031-1.569-0.094 2.913 1.869 6.362 2.95 10.069 2.95 12.075 0 18.681-10.006 18.681-18.681 0-0.287-0.006-0.569-0.019-0.85 1.281-0.919 2.394-2.075 3.275-3.394z"></path>
</symbol>
<symbol id="icon-github" viewBox="0 0 32 32">
<path d="M16 0.395c-8.836 0-16 7.163-16 16 0 7.069 4.585 13.067 10.942 15.182 0.8 0.148 1.094-0.347 1.094-0.77 0-0.381-0.015-1.642-0.022-2.979-4.452 0.968-5.391-1.888-5.391-1.888-0.728-1.849-1.776-2.341-1.776-2.341-1.452-0.993 0.11-0.973 0.11-0.973 1.606 0.113 2.452 1.649 2.452 1.649 1.427 2.446 3.743 1.739 4.656 1.33 0.143-1.034 0.558-1.74 1.016-2.14-3.554-0.404-7.29-1.777-7.29-7.907 0-1.747 0.625-3.174 1.649-4.295-0.166-0.403-0.714-2.030 0.155-4.234 0 0 1.344-0.43 4.401 1.64 1.276-0.355 2.645-0.532 4.005-0.539 1.359 0.006 2.729 0.184 4.008 0.539 3.054-2.070 4.395-1.64 4.395-1.64 0.871 2.204 0.323 3.831 0.157 4.234 1.026 1.12 1.647 2.548 1.647 4.295 0 6.145-3.743 7.498-7.306 7.895 0.574 0.497 1.085 1.47 1.085 2.963 0 2.141-0.019 3.864-0.019 4.391 0 0.426 0.288 0.925 1.099 0.768 6.354-2.118 10.933-8.113 10.933-15.18 0-8.837-7.164-16-16-16z"></path>
</symbol>
</defs>
</svg>
